<svg version="1.2" xmlns="http://www.w3.org/2000/svg" viewBox="0 0 468 336" width="468" height="336">
	<title>logo</title>
	<style>
		.s0 { fill: #006666 } 
	</style>
	<path id="Forma 1" class="s0" d="m242 79.6l17-79.6c0 0 57.1 5.1 107.3 26.3 54.7 23.1 101.4 65 101.4 65l-0.2 61.1c0 0-33.5-33.1-72.9-56.3-31.6-18.5-67.2-30.3-67.2-30.3l-42.9 199.7-50.5-0.5 47-211-14-1-63 283-38-48 33-157c0 0-39.1 2.3-75.7 13-47.7 13.9-91.4 40.8-91.4 40.8l-31.8-41.8c0 0 51.7-34.5 108.4-50.4 63.7-17.8 133.5-13 133.5-13z"/>
</svg>